# xmcd
#
# Track frame offsets: 
#        150
#        16533
#        31330
#        47879
#        64711
#        79976
#        98723
#        114494
#        131995
#
# Disc length: 2010 seconds
#
# Revision: 0
# Processed by: cddbd v1.5.2PL0 Copyright (c) Steve Scherf et al.
# Submitted via: ExactAudioCopy v1.0b3
#
DISCID=6f07d809
DTITLE=Rearmed - Wordwide Hypnotize
DYEAR=2012
DGENRE=metal
TTITLE0=Natural Backlash
TTITLE1=Save Yourself
TTITLE2=Feardrops
TTITLE3=Hoax
TTITLE4=Worldwide Hypnotize
TTITLE5=Deathtrap
TTITLE6=The Bridge that Leads Nowhere
TTITLE7=King Authority (Honour to Serve)
TTITLE8=Trance
EXTD=
EXTT0=
EXTT1=
EXTT2=
EXTT3=
EXTT4=
EXTT5=
EXTT6=
EXTT7=
EXTT8=
PLAYORDER=
